<svg width="14" height="20" viewBox="0 0 14 20" fill="none" xmlns="http://www.w3.org/2000/svg">
<path d="M12.6059 7.2406C12.3368 7.2406 12.1186 7.45877 12.1186 7.72791V10.3491C12.1186 13.4491 9.40158 14.5537 6.85883 14.5537C4.31609 14.5537 1.59913 13.4491 1.59913 10.3491V7.72791C1.59913 7.45877 1.38097 7.2406 1.11182 7.2406C0.842681 7.2406 0.624512 7.45877 0.624512 7.72791V10.3491C0.624512 12.0005 1.27429 13.3583 2.50363 14.2759C3.49809 15.0181 4.82826 15.4421 6.37157 15.5156V19.0254H3.37363C3.10449 19.0254 2.88632 19.2435 2.88632 19.5127C2.88632 19.7818 3.10449 20 3.37363 20H10.3441C10.6132 20 10.8314 19.7818 10.8314 19.5127C10.8314 19.2435 10.6132 19.0254 10.3441 19.0254H7.34615V15.5156C8.88946 15.4422 10.2196 15.0181 11.2141 14.2759C12.4434 13.3584 13.0932 12.0005 13.0932 10.3491V7.72791C13.0932 7.45877 12.875 7.2406 12.6059 7.2406Z" fill="#D9D9D9"/>
<path d="M3.61517 13.0471C4.41193 13.568 5.50331 13.8321 6.85896 13.8321C8.21462 13.8321 9.306 13.568 10.1028 13.0471C11.0538 12.4253 11.5565 11.4372 11.5565 10.1896V4.17007C11.5566 1.7148 9.62485 0 6.85896 0C4.09308 0 2.16138 1.7148 2.16138 4.17007V10.1896C2.16133 11.4372 2.66409 12.4253 3.61517 13.0471ZM6.85896 0.974623C8.71211 0.974623 10.582 1.9627 10.582 4.17007V4.61874H8.61752C8.34838 4.61874 8.13021 4.83691 8.13021 5.10605C8.13021 5.37519 8.34838 5.59336 8.61752 5.59336H10.582V6.72904H8.61752C8.34838 6.72904 8.13021 6.94721 8.13021 7.21635C8.13021 7.4855 8.34838 7.70367 8.61752 7.70367H10.582V8.83934H8.61752C8.34838 8.83934 8.13021 9.05751 8.13021 9.32666C8.13021 9.5958 8.34838 9.81397 8.61752 9.81397H10.582V10.1897C10.582 11.1181 10.2508 11.7859 9.56944 12.2314C8.9429 12.641 8.00561 12.8575 6.85896 12.8575C5.71232 12.8575 4.77507 12.641 4.14849 12.2314C3.46718 11.7859 3.136 11.1181 3.136 10.1897V9.81397H5.10045C5.36959 9.81397 5.58776 9.5958 5.58776 9.32666C5.58776 9.05751 5.36959 8.83934 5.10045 8.83934H3.136V7.70367H5.10045C5.36959 7.70367 5.58776 7.4855 5.58776 7.21635C5.58776 6.94721 5.36959 6.72904 5.10045 6.72904H3.136V5.59336H5.10045C5.36959 5.59336 5.58776 5.37519 5.58776 5.10605C5.58776 4.83691 5.36959 4.61874 5.10045 4.61874H3.136V4.17007C3.13595 1.9627 5.00581 0.974623 6.85896 0.974623Z" fill="#D9D9D9"/>
</svg>
