<svg width="37" height="36" viewBox="0 0 37 36" fill="none" xmlns="http://www.w3.org/2000/svg">
<path d="M34.0882 10.905L22.3218 1.71102C21.2431 0.851124 19.8468 0.375732 18.3996 0.375732C16.9525 0.375732 15.5561 0.851124 14.4775 1.71102L2.71107 10.905C2.08817 11.4016 1.59111 12.0107 1.25296 12.6918C0.914818 13.3729 0.74336 14.1105 0.750003 14.8553V30.132C0.750003 31.5227 1.36984 32.8565 2.47315 33.8399C3.57647 34.8233 5.07289 35.3757 6.63321 35.3757H30.166C31.7263 35.3757 33.2228 34.8233 34.3261 33.8399C35.4294 32.8565 36.0492 31.5227 36.0492 30.132V14.8378C36.0531 14.0959 35.8803 13.3618 35.5422 12.6838C35.2042 12.0059 34.7086 11.3996 34.0882 10.905ZM22.3218 31.8799H14.4775V23.1404C14.4775 22.6768 14.6841 22.2322 15.0519 21.9044C15.4196 21.5766 15.9184 21.3925 16.4385 21.3925H20.3607C20.8808 21.3925 21.3796 21.5766 21.7474 21.9044C22.1151 22.2322 22.3218 22.6768 22.3218 23.1404V31.8799ZM32.1271 30.132C32.1271 30.5956 31.9205 31.0402 31.5527 31.368C31.1849 31.6958 30.6861 31.8799 30.166 31.8799H26.2439V23.1404C26.2439 21.7497 25.6241 20.4159 24.5207 19.4325C23.4174 18.4491 21.921 17.8966 20.3607 17.8966H16.4385C14.8782 17.8966 13.3818 18.4491 12.2785 19.4325C11.1752 20.4159 10.5553 21.7497 10.5553 23.1404V31.8799H6.63321C6.1131 31.8799 5.6143 31.6958 5.24652 31.368C4.87875 31.0402 4.67214 30.5956 4.67214 30.132V14.8378C4.67249 14.5896 4.73213 14.3444 4.8471 14.1183C4.96207 13.8923 5.12972 13.6907 5.3389 13.5269L17.1053 4.35036C17.4632 4.07013 17.9233 3.91559 18.3996 3.91559C18.876 3.91559 19.336 4.07013 19.6939 4.35036L31.4603 13.5269C31.6695 13.6907 31.8372 13.8923 31.9521 14.1183C32.0671 14.3444 32.1267 14.5896 32.1271 14.8378V30.132Z" fill="#FFA07A"/>
</svg>
