<svg width="36" height="35" viewBox="0 0 36 35" fill="none" xmlns="http://www.w3.org/2000/svg">
<path d="M24.3244 18.7413C26.0391 17.3922 27.2907 15.5423 27.905 13.4488C28.5194 11.3553 28.4659 9.12232 27.7521 7.06061C27.0383 4.99891 25.6996 3.21095 23.9223 1.94549C22.145 0.680034 20.0175 0 17.8357 0C15.6539 0 13.5264 0.680034 11.7491 1.94549C9.97177 3.21095 8.63309 4.99891 7.91927 7.06061C7.20545 9.12232 7.15198 11.3553 7.76631 13.4488C8.38065 15.5423 9.63222 17.3922 11.3469 18.7413C8.40875 19.9185 5.84509 21.8709 3.92926 24.3904C2.01342 26.9099 0.817225 29.9022 0.468191 33.0481C0.442926 33.2777 0.463148 33.5102 0.527701 33.732C0.592255 33.9539 0.699876 34.1609 0.844419 34.3411C1.13634 34.7052 1.56093 34.9384 2.02479 34.9894C2.48866 35.0405 2.95379 34.9051 3.31787 34.6132C3.68195 34.3213 3.91515 33.8967 3.96617 33.4328C4.35023 30.0139 5.98046 26.8563 8.54542 24.5633C11.1104 22.2704 14.4302 21.0028 17.8707 21.0028C21.3111 21.0028 24.6309 22.2704 27.1959 24.5633C29.7608 26.8563 31.3911 30.0139 31.7751 33.4328C31.8227 33.8626 32.0278 34.2595 32.3507 34.547C32.6737 34.8344 33.0918 34.9921 33.5241 34.9894H33.7165C34.175 34.9367 34.594 34.7049 34.8823 34.3445C35.1706 33.9841 35.3048 33.5244 35.2556 33.0655C34.9049 29.9107 33.7023 26.9108 31.7766 24.3874C29.8509 21.864 27.2748 19.9122 24.3244 18.7413ZM17.8357 17.4995C16.452 17.4995 15.0994 17.0892 13.9489 16.3205C12.7984 15.5518 11.9018 14.4591 11.3722 13.1808C10.8427 11.9025 10.7042 10.4958 10.9741 9.13872C11.2441 7.78163 11.9104 6.53507 12.8888 5.55667C13.8672 4.57826 15.1137 3.91196 16.4708 3.64202C17.8279 3.37208 19.2346 3.51062 20.5129 4.04013C21.7913 4.56964 22.8839 5.46633 23.6526 6.61681C24.4213 7.76729 24.8316 9.11989 24.8316 10.5036C24.8316 12.359 24.0946 14.1385 22.7826 15.4505C21.4706 16.7625 19.6911 17.4995 17.8357 17.4995Z" fill="#FFA07A"/>
</svg>
