<svg width="37" height="36" viewBox="0 0 37 36" fill="none" xmlns="http://www.w3.org/2000/svg">
<path d="M33.3933 18.6965C33.093 18.384 32.9221 17.9773 32.9123 17.5524C32.9025 17.1275 33.0546 16.7134 33.3402 16.3874L35.6208 13.8146C35.8721 13.5335 36.0242 13.1835 36.0551 12.8149C36.086 12.4463 35.9942 12.078 35.7929 11.7629L31.9999 5.79437C31.8005 5.47957 31.5023 5.23327 31.1479 5.09057C30.7934 4.94786 30.4007 4.91605 30.0257 4.99965L26.6063 5.74336C26.1713 5.83988 25.7147 5.78065 25.3228 5.57685C24.9308 5.37306 24.6306 5.03879 24.4788 4.63714L23.2908 1.46155C23.1602 1.11692 22.9198 0.820506 22.6034 0.614213C22.287 0.40792 21.9108 0.302177 21.5278 0.31193L14.22 0.479967C13.8212 0.469217 13.4293 0.583781 13.1044 0.806159C12.7794 1.02854 12.5392 1.34651 12.4204 1.7115L11.4709 4.93624C11.3377 5.34445 11.0532 5.69216 10.6711 5.91376C10.2889 6.13535 9.83552 6.21551 9.39649 6.13909L5.8552 5.55544C5.49701 5.51533 5.13423 5.57765 4.81256 5.73455C4.49088 5.89145 4.22471 6.1359 4.04756 6.43711L0.532838 12.5737C0.34126 12.8943 0.260317 13.2645 0.301583 13.6313C0.342848 13.9981 0.504208 14.3429 0.762595 14.6162L3.14074 17.0818C3.44098 17.3943 3.61194 17.801 3.62171 18.2259C3.63148 18.6508 3.47939 19.0649 3.19384 19.3909L0.931535 21.9632C0.685985 22.2482 0.54064 22.5999 0.51628 22.9683C0.491919 23.3366 0.589791 23.7027 0.795902 24.0141L4.58897 29.9827C4.78832 30.2975 5.08649 30.5438 5.44097 30.6865C5.79546 30.8292 6.18816 30.861 6.56311 30.7774L9.98249 30.0337C10.4175 29.9372 10.8741 29.9964 11.2661 30.2002C11.658 30.404 11.9582 30.7383 12.11 31.1399L13.2981 34.3155C13.4335 34.6747 13.6881 34.9812 14.0229 35.1885C14.3578 35.3957 14.7544 35.4921 15.1524 35.463L22.4602 35.295C22.8432 35.2871 23.2142 35.1642 23.5207 34.9436C23.8273 34.723 24.0538 34.4158 24.1684 34.0655L25.2092 30.8387C25.3424 30.4305 25.627 30.0828 26.0091 29.8612C26.3913 29.6396 26.8447 29.5594 27.2837 29.6359L30.7336 30.2216C31.112 30.2879 31.5029 30.2381 31.8504 30.0792C32.198 29.9204 32.4845 29.6606 32.6692 29.337L36.1839 23.2004C36.3705 22.8764 36.4453 22.5043 36.3974 22.1375C36.3496 21.7707 36.1816 21.4281 35.9176 21.1588L33.3933 18.6965ZM30.725 21.1031L32.2228 22.6439L29.9736 26.5811L27.8081 26.2109C26.4864 25.9836 25.1226 26.2291 23.9755 26.9007C22.8284 27.5724 21.978 28.6234 21.5856 29.8544L20.9364 31.8296L16.2594 31.9371L15.5559 29.958C15.1073 28.7464 14.2095 27.7356 13.0328 27.1173C11.856 26.4991 10.4824 26.3166 9.17247 26.6044L7.02633 27.0738L4.5624 23.2624L5.98776 21.6545C6.86441 20.6716 7.33265 19.4146 7.30297 18.1238C7.27329 16.8329 6.74776 15.5987 5.82686 14.6573L4.3291 13.1165L6.5791 9.21426L8.74455 9.58452C10.0663 9.8118 11.4301 9.56632 12.5772 8.89467C13.7243 8.22301 14.5747 7.17195 14.9671 5.94099L15.6159 3.94832L20.2928 3.84078L21.0329 5.81901C21.4815 7.03063 22.3793 8.0415 23.5561 8.65972C24.7328 9.27793 26.1065 9.46047 27.4164 9.17268L29.5625 8.70328L31.9903 12.533L30.5649 14.1409C29.6983 15.1213 29.2361 16.371 29.2656 17.6538C29.2951 18.9365 29.8143 20.1636 30.725 21.1031ZM18.1153 10.8917C16.6699 10.925 15.2665 11.3678 14.0824 12.1643C12.8983 12.9608 11.9868 14.0752 11.4631 15.3665C10.9393 16.6578 10.827 18.068 11.1402 19.4188C11.4533 20.7697 12.178 22.0005 13.2225 22.9555C14.267 23.9106 15.5845 24.5471 17.0083 24.7845C18.4321 25.0219 19.8982 24.8495 21.2214 24.2892C22.5445 23.7289 23.6652 22.8058 24.4417 21.6367C25.2183 20.4675 25.6158 19.1048 25.5839 17.7209C25.5413 15.8651 24.7304 14.1031 23.3298 12.8224C21.9291 11.5416 20.0534 10.8472 18.1153 10.8917ZM18.3566 21.3875C17.6339 21.4042 16.9228 21.2152 16.313 20.8446C15.7033 20.474 15.2224 19.9383 14.9312 19.3054C14.6399 18.6725 14.5514 17.9707 14.6768 17.2888C14.8021 16.6069 15.1358 15.9755 15.6356 15.4745C16.1353 14.9734 16.7787 14.6253 17.4844 14.474C18.1901 14.3227 18.9264 14.3751 19.6001 14.6245C20.2739 14.874 20.8548 15.3093 21.2696 15.8754C21.6843 16.4415 21.9141 17.113 21.93 17.8049C21.9514 18.7328 21.5869 19.6315 20.9167 20.3034C20.2466 20.9753 19.3257 21.3653 18.3566 21.3875Z" fill="#FFA07A"/>
</svg>
