<svg width="36" height="36" viewBox="0 0 36 36" fill="none" xmlns="http://www.w3.org/2000/svg">
<path d="M32.0987 3.91176C30.2416 1.89876 27.7795 0.674879 25.1602 0.462688C22.5409 0.250497 19.9383 1.06409 17.8257 2.75551C15.6002 0.961688 12.8302 0.148283 10.0734 0.479096C7.31662 0.809908 4.77791 2.26037 2.96849 4.53838C1.15906 6.8164 0.213333 9.75276 0.321742 12.7561C0.430152 15.7595 1.58465 18.6069 3.55274 20.7248L16.5838 34.8462C16.7464 35.0238 16.9399 35.1649 17.153 35.2611C17.3662 35.3573 17.5948 35.4069 17.8257 35.4069C18.0566 35.4069 18.2852 35.3573 18.4984 35.2611C18.7115 35.1649 18.905 35.0238 19.0676 34.8462L32.0987 20.7248C33.1178 19.6211 33.9263 18.3106 34.4779 16.8681C35.0294 15.4257 35.3134 13.8796 35.3134 12.3183C35.3134 10.7569 35.0294 9.21082 34.4779 7.76839C33.9263 6.32597 33.1178 5.01546 32.0987 3.91176ZM29.6324 18.0521L17.8257 30.8277L6.01903 18.0521C4.9786 16.9199 4.26985 15.48 3.98168 13.913C3.69352 12.346 3.83878 10.7217 4.39924 9.24376C4.9597 7.76587 5.9104 6.50023 7.13208 5.60561C8.35376 4.711 9.79202 4.22724 11.2664 4.21504C13.2362 4.22027 15.1235 5.07244 16.5138 6.5844C16.6765 6.76206 16.8699 6.90308 17.0831 6.99931C17.2962 7.09554 17.5248 7.14509 17.7557 7.14509C17.9866 7.14509 18.2153 7.09554 18.4284 6.99931C18.6416 6.90308 18.835 6.76206 18.9976 6.5844C20.429 5.24028 22.2781 4.53565 24.1708 4.61314C26.0634 4.69063 27.8582 5.54444 29.1919 7.00177C30.5256 8.4591 31.2986 10.4111 31.3544 12.4627C31.4102 14.5143 30.7446 16.5122 29.4924 18.0521H29.6324Z" fill="#FFA07A"/>
</svg>
